<?xml version="1.0" encoding="UTF-8"?>
<svg width="48px" height="34px" viewBox="0 0 48 34" version="1.1" xmlns="http://www.w3.org/2000/svg" xmlns:xlink="http://www.w3.org/1999/xlink">
    <title>icon</title>
    <g id="sentimetric" stroke="none" stroke-width="1" fill="none" fill-rule="evenodd">
        <g id="Artboard-Copy-2" transform="translate(-1124, -219)" fill-rule="nonzero">
            <g id="icon" transform="translate(1124, 219)">
                <path d="M16.3620015,33.8224263 C15.7702644,33.5513928 15.5260554,33.1495154 15.5260554,32.4111827 C15.5260554,31.8971535 15.591804,31.654158 15.9393321,30.8690953 L16.3432162,29.9344969 L15.9017615,29.5419655 C15.6575526,29.3176619 15.1127787,28.9718605 14.6995019,28.7662488 C13.3093893,28.083992 12.0601665,27.8783803 8.85727178,27.7849205 C5.39138282,27.6821147 4.11398201,27.476503 2.72386937,26.7942462 C2.10395427,26.4951747 1.77521142,26.2428331 1.17408163,25.6446901 C0.75141224,25.2241208 0.309957549,24.7100917 0.206638366,24.513826 L0,24.1399866 L0.770197546,24.1212947 C2.02881305,24.1026027 3.34378447,23.7287633 5.26927833,22.8408948 C5.66376976,22.6539751 5.99251262,22.4577095 5.99251262,22.4109795 C5.99251262,22.3642496 5.86101547,21.9997562 5.70134037,21.5978789 C5.06263997,20.0184076 4.51786609,17.8314473 4.24547916,15.8314066 C4.06701875,14.448201 4.06701875,14.457547 4.49908079,15.1117659 C4.92175017,15.7379468 5.72012568,16.4949715 6.34943343,16.8688109 C7.66440485,17.6445276 9.21419259,17.971637 11.9568473,18.0650969 C14.887355,18.1585567 16.3526089,18.2894005 17.3388374,18.5417421 C18.3908146,18.8127756 19.3488652,19.2894208 19.9781729,19.8501799 L20.4290203,20.2520572 L24.496039,10.6070015 C26.7314904,5.29848241 28.6757696,0.812409977 28.8166594,0.634836276 C29.2956847,0.00865533229 30.047097,-0.168918368 30.7327606,0.167537064 C31.2681418,0.419878639 31.6344553,0.980637693 31.6344553,1.56008872 C31.6344553,1.8685062 30.2255574,5.28913643 25.0595982,17.5323758 C21.4434268,26.1026433 18.4095999,33.2149373 18.3156734,33.3457811 C18.0996423,33.6448526 17.3951934,34 17.0288799,34 C16.8785974,34 16.5780325,33.9158861 16.3620015,33.8224263 Z" id="Path" fill="#17B900" transform="translate(15.8172, 17) scale(-1, 1) rotate(-180) translate(-15.8172, -17)"></path>
                <path d="M30.5543002,19.2637917 C30.263128,19.1890238 29.77471,18.7871465 29.6244276,18.497421 C29.5492863,18.3572312 28.4691312,15.8244695 27.2199084,12.8711385 C25.6137647,9.06732288 24.9656717,7.44112162 25.0032423,7.27289391 C25.0220276,7.14205013 25.4071264,6.19810572 25.8485811,5.17004745 L26.6375639,3.30085061 L26.9099509,3.90833958 C27.0602333,4.24479501 27.285657,4.75882415 27.3983688,5.05789564 L27.6143998,5.59061674 L27.9901059,5.25416131 C28.5254872,4.77751612 29.126617,4.41302273 29.8404586,4.15133517 C31.1366447,3.66534399 31.9256276,3.55319218 35.1003443,3.44104037 C38.7446936,3.31019659 39.9375606,3.10458494 41.3182806,2.39429013 C42.1917973,1.95502888 43.0371361,1.20735014 43.553732,0.44097943 C43.985794,-0.213239467 43.985794,-0.222585451 43.8073336,1.16062022 C43.5349467,3.16066084 42.9901728,5.34762115 42.3514724,6.92709249 C42.1917973,7.32896981 42.0603001,7.6934632 42.0603001,7.74019312 C42.0603001,7.78692304 42.389043,7.98318871 42.7929271,8.17010839 C44.7090283,9.0579769 46.0239997,9.43181626 47.2920079,9.45050823 C47.7710332,9.45985422 48.0340275,9.50658414 47.9964568,9.56266004 C46.8223752,11.5907386 44.9720226,12.6748728 42.2011899,12.9645983 C41.7409499,13.0113282 40.4447638,13.0767501 39.3364308,13.1141341 C37.0446234,13.1795559 35.9550757,13.2823618 34.8749206,13.5440493 C33.91687,13.7776989 32.7427884,14.347804 32.1698365,14.8618331 L31.7189892,15.2637104 L32.1604439,16.3291526 C32.53615,17.2450591 32.5925059,17.4600167 32.5549353,17.880586 C32.4704014,18.8806063 31.5687067,19.5067873 30.5543002,19.2637917 Z" id="Path" fill="#E44E04" transform="translate(36.5009, 9.6646) scale(-1, 1) rotate(-180) translate(-36.5009, -9.6646)"></path>
                <path d="M18.8792325,28.1578863 C16.1929338,21.793271 16.2211117,21.8773849 16.6531738,21.1390521 C17.216733,20.1764157 18.541097,20.1109938 19.2361533,21.0082083 C19.4240064,21.2418579 22.8523248,29.1579066 23.1059264,29.9336233 C23.143497,30.0457751 21.4903901,33.9991264 21.4058562,33.9991264 C21.3682856,33.9991264 20.2411672,31.3729048 18.8792325,28.1578863 Z" id="Path" fill="#E44E04" transform="translate(19.771, 27.1867) scale(-1, 1) rotate(-180) translate(-19.771, -27.1867)"></path>
            </g>
        </g>
    </g>
</svg>