<?xml version="1.0" encoding="UTF-8"?>
<svg width="146.627969px" height="34px" viewBox="0 0 146.627969 34" version="1.1" xmlns="http://www.w3.org/2000/svg" xmlns:xlink="http://www.w3.org/1999/xlink">
    <title>Group</title>
    <g id="sentimetric" stroke="none" stroke-width="1" fill="none" fill-rule="evenodd">
        <g id="Artboard-Copy-2" transform="translate(-1025.372, -35)" fill-rule="nonzero">
            <g id="Group" transform="translate(1025.372, 35)">
                <g id="icon" transform="translate(98.628, 0)">
                    <path d="M16.3620015,33.8224263 C15.7702644,33.5513928 15.5260554,33.1495154 15.5260554,32.4111827 C15.5260554,31.8971535 15.591804,31.654158 15.9393321,30.8690953 L16.3432162,29.9344969 L15.9017615,29.5419655 C15.6575526,29.3176619 15.1127787,28.9718605 14.6995019,28.7662488 C13.3093893,28.083992 12.0601665,27.8783803 8.85727178,27.7849205 C5.39138282,27.6821147 4.11398201,27.476503 2.72386937,26.7942462 C2.10395427,26.4951747 1.77521142,26.2428331 1.17408163,25.6446901 C0.75141224,25.2241208 0.309957549,24.7100917 0.206638366,24.513826 L0,24.1399866 L0.770197546,24.1212947 C2.02881305,24.1026027 3.34378447,23.7287633 5.26927833,22.8408948 C5.66376976,22.6539751 5.99251262,22.4577095 5.99251262,22.4109795 C5.99251262,22.3642496 5.86101547,21.9997562 5.70134037,21.5978789 C5.06263997,20.0184076 4.51786609,17.8314473 4.24547916,15.8314066 C4.06701875,14.448201 4.06701875,14.457547 4.49908079,15.1117659 C4.92175017,15.7379468 5.72012568,16.4949715 6.34943343,16.8688109 C7.66440485,17.6445276 9.21419259,17.971637 11.9568473,18.0650969 C14.887355,18.1585567 16.3526089,18.2894005 17.3388374,18.5417421 C18.3908146,18.8127756 19.3488652,19.2894208 19.9781729,19.8501799 L20.4290203,20.2520572 L24.496039,10.6070015 C26.7314904,5.29848241 28.6757696,0.812409977 28.8166594,0.634836276 C29.2956847,0.00865533229 30.047097,-0.168918368 30.7327606,0.167537064 C31.2681418,0.419878639 31.6344553,0.980637693 31.6344553,1.56008872 C31.6344553,1.8685062 30.2255574,5.28913643 25.0595982,17.5323758 C21.4434268,26.1026433 18.4095999,33.2149373 18.3156734,33.3457811 C18.0996423,33.6448526 17.3951934,34 17.0288799,34 C16.8785974,34 16.5780325,33.9158861 16.3620015,33.8224263 Z" id="Path" fill="#17B900" transform="translate(15.8172, 17) scale(-1, 1) rotate(-180) translate(-15.8172, -17)"></path>
                    <path d="M30.5543002,19.2637917 C30.263128,19.1890238 29.77471,18.7871465 29.6244276,18.497421 C29.5492863,18.3572312 28.4691312,15.8244695 27.2199084,12.8711385 C25.6137647,9.06732288 24.9656717,7.44112162 25.0032423,7.27289391 C25.0220276,7.14205013 25.4071264,6.19810572 25.8485811,5.17004745 L26.6375639,3.30085061 L26.9099509,3.90833958 C27.0602333,4.24479501 27.285657,4.75882415 27.3983688,5.05789564 L27.6143998,5.59061674 L27.9901059,5.25416131 C28.5254872,4.77751612 29.126617,4.41302273 29.8404586,4.15133517 C31.1366447,3.66534399 31.9256276,3.55319218 35.1003443,3.44104037 C38.7446936,3.31019659 39.9375606,3.10458494 41.3182806,2.39429013 C42.1917973,1.95502888 43.0371361,1.20735014 43.553732,0.44097943 C43.985794,-0.213239467 43.985794,-0.222585451 43.8073336,1.16062022 C43.5349467,3.16066084 42.9901728,5.34762115 42.3514724,6.92709249 C42.1917973,7.32896981 42.0603001,7.6934632 42.0603001,7.74019312 C42.0603001,7.78692304 42.389043,7.98318871 42.7929271,8.17010839 C44.7090283,9.0579769 46.0239997,9.43181626 47.2920079,9.45050823 C47.7710332,9.45985422 48.0340275,9.50658414 47.9964568,9.56266004 C46.8223752,11.5907386 44.9720226,12.6748728 42.2011899,12.9645983 C41.7409499,13.0113282 40.4447638,13.0767501 39.3364308,13.1141341 C37.0446234,13.1795559 35.9550757,13.2823618 34.8749206,13.5440493 C33.91687,13.7776989 32.7427884,14.347804 32.1698365,14.8618331 L31.7189892,15.2637104 L32.1604439,16.3291526 C32.53615,17.2450591 32.5925059,17.4600167 32.5549353,17.880586 C32.4704014,18.8806063 31.5687067,19.5067873 30.5543002,19.2637917 Z" id="Path" fill="#E44E04" transform="translate(36.5009, 9.6646) scale(-1, 1) rotate(-180) translate(-36.5009, -9.6646)"></path>
                    <path d="M18.8792325,28.1578863 C16.1929338,21.793271 16.2211117,21.8773849 16.6531738,21.1390521 C17.216733,20.1764157 18.541097,20.1109938 19.2361533,21.0082083 C19.4240064,21.2418579 22.8523248,29.1579066 23.1059264,29.9336233 C23.143497,30.0457751 21.4903901,33.9991264 21.4058562,33.9991264 C21.3682856,33.9991264 20.2411672,31.3729048 18.8792325,28.1578863 Z" id="Path" fill="#E44E04" transform="translate(19.771, 27.1867) scale(-1, 1) rotate(-180) translate(-19.771, -27.1867)"></path>
                </g>
                <g id="مقياس" transform="translate(0, 4.9844)" fill="#131415">
                    <path d="M91.1435945,10.59375 L91.1748445,16.359375 C91.1748445,18.1614583 90.6253653,19.6145833 89.526407,20.71875 C88.4274486,21.8229167 86.9040111,22.375 84.9560945,22.375 C83.7790111,22.375 82.667032,22.0703125 81.620157,21.4609375 C80.573282,20.8515625 79.6904695,20.046875 78.9717195,19.046875 L77.4404695,22.015625 L74.4717195,22.015625 L74.4717195,18.6875 L76.2529695,18.6875 C76.5654695,18.4375 76.8441153,18.1692708 77.088907,17.8828125 C77.3336986,17.5963542 77.557657,17.2578125 77.760782,16.8671875 C77.963907,16.4765625 78.1279695,16.1432292 78.2529695,15.8671875 C78.3779695,15.5911458 78.5472403,15.1744792 78.760782,14.6171875 C78.9743236,14.0598958 79.1435945,13.6354167 79.2685945,13.34375 C80.5498445,10.375 82.4821361,8.921875 85.0654695,8.984375 L89.5654695,9.03125 L91.1435945,10.59375 Z M85.2842195,18.96875 C86.3675528,18.96875 87.229532,18.7213542 87.870157,18.2265625 C88.510782,17.7317708 88.8935945,17.0104167 89.0185945,16.0625 C88.9977611,15.8541667 88.9560945,15.4010417 88.8935945,14.703125 C88.8310945,14.0052083 88.7738028,13.4505208 88.7217195,13.0390625 C88.6696361,12.6276042 88.6227611,12.4114583 88.5810945,12.390625 C88.5081778,12.3489583 88.0680736,12.3046875 87.260782,12.2578125 C86.4534903,12.2109375 85.7633861,12.1875 85.1904695,12.1875 C84.0654695,12.1875 83.1722403,12.4947917 82.510782,13.109375 C81.8493236,13.7239583 81.0967195,14.9635417 80.2529695,16.828125 C81.8363028,18.2552083 83.5133861,18.96875 85.2842195,18.96875 Z" id="Shape"></path>
                    <polygon id="Path" points="70.8419118 22.015625 70.8419118 18.6875 74.9044118 18.6875 74.9044118 22.015625"></polygon>
                    <path d="M59.1075368,2.71875 L60.9356618,0.921875 L62.8262868,2.71875 L60.9356618,4.640625 L59.1075368,2.71875 Z M63.8731618,2.71875 L65.7012868,0.921875 L67.5919118,2.71875 L65.7012868,4.640625 L63.8731618,2.71875 Z M71.6544118,18.6875 L71.6544118,22.015625 L69.7637868,22.015625 C67.6492034,22.015625 65.5919118,21.5364583 63.5919118,20.578125 L61.8887868,21.828125 C61.5971201,21.9010417 61.1231618,21.9557292 60.4669118,21.9921875 C59.8106618,22.0286458 59.2169118,22.046875 58.6856618,22.046875 C58.1544118,22.046875 57.5215993,22.0416667 56.7872243,22.03125 C56.0528493,22.0208333 55.6648284,22.015625 55.6231618,22.015625 L55.5606618,18.6875 C55.8314951,18.6875 56.1908701,18.6875 56.6387868,18.6875 C57.0867034,18.6875 57.4226409,18.6875 57.6465993,18.6875 C57.8705576,18.6875 58.1492034,18.6875 58.4825368,18.6875 C58.8158701,18.6875 59.0710784,18.6848958 59.2481618,18.6796875 C59.4252451,18.6744792 59.6231618,18.6666667 59.8419118,18.65625 C60.0606618,18.6458333 60.2377451,18.6328125 60.3731618,18.6171875 C60.5085784,18.6015625 60.6283701,18.5833333 60.7325368,18.5625 C60.2742034,18.34375 59.7637868,17.8229167 59.2012868,17 C58.6387868,16.1770833 58.1960784,15.4114583 57.8731618,14.703125 L57.3731618,13.625 C57.3939951,13.53125 57.4278493,13.4088542 57.4747243,13.2578125 C57.5215993,13.1067708 57.6361826,12.8125 57.8184743,12.375 C58.0007659,11.9375 58.1986826,11.5182292 58.4122243,11.1171875 C58.6257659,10.7161458 58.9200368,10.2708333 59.2950368,9.78125 C59.6700368,9.29166667 60.0658701,8.86979167 60.4825368,8.515625 C60.8992034,8.16145833 61.4096201,7.86458333 62.0137868,7.625 C62.6179534,7.38541667 63.2481618,7.265625 63.9044118,7.265625 C64.5502451,7.265625 65.1648284,7.3828125 65.7481618,7.6171875 C66.3314951,7.8515625 66.8314951,8.15625 67.2481618,8.53125 C67.6648284,8.90625 68.0476409,9.3203125 68.3965993,9.7734375 C68.7455576,10.2265625 69.0346201,10.6822917 69.2637868,11.140625 C69.4929534,11.5989583 69.6856618,12.015625 69.8419118,12.390625 C69.9981618,12.765625 70.1127451,13.0677083 70.1856618,13.296875 L70.2794118,13.65625 C70.2481618,13.7604167 70.2038909,13.8984375 70.1465993,14.0703125 C70.0893076,14.2421875 69.9564951,14.5598958 69.7481618,15.0234375 C69.5398284,15.4869792 69.3210784,15.9192708 69.0919118,16.3203125 C68.8627451,16.7213542 68.5632659,17.1328125 68.1934743,17.5546875 C67.8236826,17.9765625 67.4408701,18.2916667 67.0450368,18.5 C67.7117034,18.625 69.2481618,18.6875 71.6544118,18.6875 Z M64.0294118,18.140625 C64.5189951,18.0052083 64.9903493,17.7838542 65.4434743,17.4765625 C65.8965993,17.1692708 66.2742034,16.8411458 66.5762868,16.4921875 C66.8783701,16.1432292 67.1439951,15.8046875 67.3731618,15.4765625 C67.6023284,15.1484375 67.7689951,14.875 67.8731618,14.65625 L68.0294118,14.328125 C67.9877451,14.2239583 67.9278493,14.0833333 67.8497243,13.90625 C67.7715993,13.7291667 67.5971201,13.4140625 67.3262868,12.9609375 C67.0554534,12.5078125 66.7689951,12.1067708 66.4669118,11.7578125 C66.1648284,11.4088542 65.7663909,11.09375 65.2715993,10.8125 C64.7768076,10.53125 64.2689951,10.3958333 63.7481618,10.40625 C63.2273284,10.40625 62.7325368,10.5390625 62.2637868,10.8046875 C61.7950368,11.0703125 61.4096201,11.390625 61.1075368,11.765625 C60.8054534,12.140625 60.5424326,12.5182292 60.3184743,12.8984375 C60.0945159,13.2786458 59.9356618,13.5989583 59.8419118,13.859375 L59.6856618,14.265625 C59.7273284,14.3489583 59.7898284,14.4635417 59.8731618,14.609375 C59.9564951,14.7552083 60.1361826,15.0234375 60.4122243,15.4140625 C60.6882659,15.8046875 60.9825368,16.1614583 61.2950368,16.484375 C61.6075368,16.8072917 62.0111826,17.1302083 62.5059743,17.453125 C63.0007659,17.7760417 63.5085784,18.0052083 64.0294118,18.140625 Z" id="Shape"></path>
                    <path d="M55.8106618,22.015625 L53.7325368,22.015625 C52.4617034,22.015625 51.4044118,21.7421875 50.5606618,21.1953125 C49.7169118,20.6484375 49.1752451,19.84375 48.9356618,18.78125 L47.2325368,22.015625 L44.2012868,22.015625 L44.2012868,18.6875 L47.7794118,18.6875 C47.7794118,18.6770833 47.8288909,18.4453125 47.9278493,17.9921875 C48.0268076,17.5390625 48.0997243,17.1822917 48.1465993,16.921875 C48.1934743,16.6614583 48.2455576,16.296875 48.3028493,15.828125 C48.3601409,15.359375 48.3887868,14.9270833 48.3887868,14.53125 L48.3887868,12.21875 L51.2325368,11.453125 L51.2325368,15.546875 C51.2325368,16.5364583 51.4460784,17.28125 51.8731618,17.78125 C52.3002451,18.28125 52.9721201,18.5729167 53.8887868,18.65625 L55.8106618,18.6875 L55.8106618,22.015625 Z M47.9356618,24.953125 L49.8262868,26.8125 L47.9356618,28.703125 L46.1231618,26.8125 L47.9356618,24.953125 Z M52.4512868,24.953125 L54.3419118,26.8125 L52.4512868,28.703125 L50.6231618,26.8125 L52.4512868,24.953125 Z" id="Shape"></path>
                    <path d="M40.9825368,18.46875 C42.3679534,18.6145833 43.5398284,18.6875 44.4981618,18.6875 L44.4981618,22.015625 L43.4044118,22.015625 C42.4148284,22.015625 41.5059743,21.96875 40.6778493,21.875 C39.8497243,21.78125 39.2637868,21.6822917 38.9200368,21.578125 L38.4200368,21.4375 C38.0346201,19.03125 37.8419118,16.9322917 37.8419118,15.140625 L37.8106618,0.484375 L40.8887868,0 L40.8887868,13.890625 L40.9825368,18.46875 Z" id="Path"></path>
                    <path d="M33.9512868,11.171875 C34.3575368,13.2552083 34.5294118,15.0364583 34.4669118,16.515625 C34.4356618,17.453125 34.2872243,18.4192708 34.0215993,19.4140625 C33.7559743,20.4088542 33.5189951,21.0625 33.3106618,21.375 C31.5814951,22.0416667 30.2377451,22.375 29.2794118,22.375 C26.8106618,22.375 25.2950368,21.296875 24.7325368,19.140625 L23.3575368,22.375 L21.0606618,22.375 C19.5814951,22.375 18.4929534,21.8072917 17.7950368,20.671875 C17.7950368,21.546875 17.6387868,22.5 17.3262868,23.53125 C17.0137868,24.5625 16.7064951,25.3697917 16.4044118,25.953125 L15.9356618,26.84375 C15.0814951,27.1145833 13.9512868,27.390625 12.5450368,27.671875 C11.1387868,27.953125 9.89920343,28.09375 8.82628676,28.09375 C6.2533701,28.0520833 4.18826593,27.3619792 2.63097426,26.0234375 C1.0736826,24.6848958 0.206495098,22.859375 0.0294117647,20.546875 C-0.0539215686,19.171875 0.0398284314,17.75 0.310661765,16.28125 L2.49816176,14.53125 L3.35753676,14.75 C2.99295343,16.2395833 2.81066176,17.6458333 2.81066176,18.96875 C2.8314951,20.7604167 3.42003676,22.1588542 4.57628676,23.1640625 C5.73253676,24.1692708 7.3314951,24.671875 9.37316176,24.671875 C10.0502451,24.671875 10.8445159,24.609375 11.7559743,24.484375 C12.6674326,24.359375 13.4096201,24.234375 13.9825368,24.109375 L14.8419118,23.90625 C14.8627451,23.8645833 14.8939951,23.7994792 14.9356618,23.7109375 C14.9773284,23.6223958 15.0528493,23.4348958 15.1622243,23.1484375 C15.2715993,22.8619792 15.3757659,22.5651042 15.4747243,22.2578125 C15.5736826,21.9505208 15.6726409,21.5625 15.7715993,21.09375 C15.8705576,20.625 15.9434743,20.1510417 15.9903493,19.671875 C16.0372243,19.1927083 16.0580576,18.6510417 16.0528493,18.046875 C16.0476409,17.4427083 15.9981618,16.84375 15.9044118,16.25 L15.4825368,14.171875 L18.2950368,13.5 L18.6856618,15.578125 C18.9148284,16.7760417 19.2481618,17.6354167 19.6856618,18.15625 C20.1231618,18.6770833 20.7273284,18.9375 21.4981618,18.9375 L22.9044118,18.875 C23.6127451,17.6458333 23.9669118,16.6770833 23.9669118,15.96875 L23.9669118,14.203125 L26.8419118,13.5 L26.8419118,15.546875 C26.8419118,17.8072917 27.6752451,18.9375 29.3419118,18.9375 C29.5398284,18.9375 29.8028493,18.8932292 30.1309743,18.8046875 C30.4590993,18.7161458 30.7351409,18.6276042 30.9590993,18.5390625 C31.1830576,18.4505208 31.3054534,18.3958333 31.3262868,18.375 C31.3471201,18.2604167 31.3757659,18.1067708 31.4122243,17.9140625 C31.4486826,17.7213542 31.4903493,17.3776042 31.5372243,16.8828125 C31.5840993,16.3880208 31.5971201,15.953125 31.5762868,15.578125 C31.5450368,14.2864583 31.3419118,13.0625 30.9669118,11.90625 L33.9512868,11.171875 Z" id="Path"></path>
                </g>
            </g>
        </g>
    </g>
</svg>